<svg xmlns="http://www.w3.org/2000/svg" viewBox="0 0 240 131.3"><defs><style>.a{fill:#f8f5ec;}</style></defs><title>logo</title><path class="a" d="M45.12,38.34a57.41,57.41,0,0,1-8.86-.8,2.94,2.94,0,0,1,.4,2.49c-3.19,12.55-5.58,22.41-7.47,30.67,11.05.3,20.51,0,20.51,1.39,0,1.09-2.19,2.09-13.34,2.09-2.29,0-5,0-8-.1-2,9.06-3.49,16.13-4.78,22.61a3.29,3.29,0,0,1-3.39,2.59A4,4,0,0,1,16,95.4c0-5.68,2.09-13.84-5.58-21.71l-5.88-.3C1.8,73.29.5,71.8.5,70.31s1.39-3.09,4.18-3.09A11.77,11.77,0,0,1,12.25,70c2.79.2,5.28.3,7.67.4,1.49-8.07,3.49-16.73,7-29.08.6-2.09,2.89-3.78,5.08-4.38a80.09,80.09,0,0,0-11.05-.9c-2.09,0-4.28.4-6.37.4-1.1,0-1.59-.5-1.59-1.39,0-1.89,2.59-5.18,4.78-5.48a58.05,58.05,0,0,1,8.37-.5c5.08,0,10.16.4,15,.4,3,0,5.88-.6,8.46-.6,1.69,0,2.49,2,2.49,4.18s-.9,4.68-2.79,5A27.5,27.5,0,0,1,45.12,38.34ZM19.32,73.89c-1.19,0-2.59,0-3.88-.1a24.31,24.31,0,0,1,2.79,7C18.53,78.47,18.92,76.18,19.32,73.89Z" transform="translate(-0.5 -0.35)"/><path class="a" d="M93.91,59.05c0,9.56-7.17,23-17.73,23a13,13,0,0,1-3.78-.6c0,4.38.4,11.95,6.57,11.95,9.46,0,14.54-10.75,17.13-14.84.6-1,1.1-1.39,1.59-1.39s.7.4.7,1a3.91,3.91,0,0,1-.3,1.39c-4.48,11.15-11.45,19.92-22.9,19.92-7.47,0-11.15-5.88-12-13.74-2.49,8.27-6,13.64-12.35,13.64-5.38,0-7.67-5.78-7.67-13.54C43.22,70.71,52,48.2,63.44,48.2c5,0,6.87,4.58,7.17,8.27,3.19-4.88,7.17-8.27,11.55-8.27a9.61,9.61,0,0,1,5.68,1.69C92,50.39,93.91,54.17,93.91,59.05ZM64.33,72a59.38,59.38,0,0,1,4.18-12c-.6-1.79-.7-6-3.58-6-6.67,0-12.85,22.21-12.85,32.86,0,3.49.6,5.68,2,5.68C58.46,92.51,61.55,83.75,64.33,72Zm23.4-16.63c0-1.59-.2-3.29-1.69-3.29-5.68,0-12.25,14.74-13.44,26.69C79,79.87,87.74,63.34,87.74,55.37Z" transform="translate(-0.5 -0.35)"/><path class="a" d="M101.28,96.4a3.64,3.64,0,0,1-3.68,3.29c-1.89,0-3.78-1.39-3.78-4.38,0-7,3.39-26.59,7.87-41.92a3.69,3.69,0,0,1,3.78-2.49c2.29,0,4.88,1.59,4.88,4.38,0,1.69-1.19,4.18-1.69,6,3.59-7.67,8-13.24,12.85-13.24,3.68,0,5.08,2.19,5.08,6.47,0,5.58-4.78,14.84-4.78,18.32A2,2,0,0,0,124.08,75c3.29,0,7.37-7.27,9.06-11.15.6-1.49,1.29-2.39,1.89-2.39,1.1,0,.7,2.09.5,2.79-1.49,5.68-7.27,14.64-14.14,14.64-4,0-7.77-1.69-7.77-7.67,0-5.48,4.38-12.15,4.38-15.24,0-.7-.3-1.19-1-1.19-3.39,0-11.55,14.24-14.14,31.07Z" transform="translate(-0.5 -0.35)"/><path class="a" d="M123.89,121.89c0-10.56,10.75-15.83,21.11-22.11l2.79-14c-3.49,8.36-8,13.64-11.65,13.64-5.38,0-7.67-5.78-7.67-13.54,0-15.14,8.76-37.64,20.22-37.64,4.08,0,6.27,4.28,6.47,7.37h.7a5.78,5.78,0,0,1,5.58,6c0,3.78-1.79,10.36-5.68,30.87a40.5,40.5,0,0,0,11.05-13.84c.5-1.1,1.19-1.59,1.69-1.59s.7.3.7,1a6.15,6.15,0,0,1-.4,1.59,48.08,48.08,0,0,1-14.54,19.52c-4.08,19.52-10.66,32.56-20.22,32.56A9.87,9.87,0,0,1,123.89,121.89Zm19.52-15.24c-7.07,4.68-15.34,10-15.34,17.43,0,2.29,1.29,4.48,3.58,4.48,3.19,0,7.67-4.08,11.15-18.92ZM153,57.46c-.1-1.29-.3-3.49-2.79-3.49-6.67,0-12.75,23.3-12.75,33.76,0,3,.5,4.88,1.69,4.88,4.68,0,9.56-12.85,12.55-28.38Z" transform="translate(-0.5 -0.35)"/><path class="a" d="M197.38,59.05c0,9.56-7.17,23-17.73,23a13,13,0,0,1-3.78-.6c0,4.38.4,11.95,6.57,11.95,9.46,0,14.54-10.75,17.13-14.84.6-1,1.1-1.39,1.59-1.39s.7.4.7,1a3.9,3.9,0,0,1-.3,1.39c-4.48,11.15-11.45,19.92-22.9,19.92-8.56,0-12-7.77-12-17.23,0-14.84,8.56-34.06,19-34.06a9.61,9.61,0,0,1,5.68,1.69C195.49,50.39,197.38,54.17,197.38,59.05ZM176.86,78.87c5.88,0,14.34-15.73,14.34-23.5,0-1.59-.2-3.29-1.69-3.29-5.68,0-12.25,14.74-13.44,26.69A2.19,2.19,0,0,0,176.86,78.87Z" transform="translate(-0.5 -0.35)"/><path class="a" d="M201.26,99.68a4.31,4.31,0,0,1-4.38-4.48c0-.3.1-.6.1-.9,1.79-14.94,4.08-25,8.76-40.93a3.62,3.62,0,0,1,3.68-2.59,4.69,4.69,0,0,1,4.88,4.58c0,2.59-1.69,6.67-2.29,9.26C216.1,55.27,221.18,48,226.36,48c5.88,0,7.37,5.38,7.37,9.06,0,11.25-9.66,28.48-9.66,34.56,0,1.29.5,2.09,1.59,2.09,4.38,0,11.25-13.15,12.45-15.14.6-1,1.39-1.69,1.89-1.69.3,0,.5.2.5.7a5.34,5.34,0,0,1-.4,1.79C238.9,83,231.64,99.68,223,99.68c-4,0-7.77-2.79-7.77-8.76,0-9,9.56-27,9.56-33.66,0-1.29-.5-2.39-1.59-2.39-3.68,0-12.45,15.44-16.33,33.46l-.3.7c-.5,2.79-.9,5.18-1.19,7.37A4,4,0,0,1,201.26,99.68Z" transform="translate(-0.5 -0.35)"/><path class="a" d="M6.61,8,9.92.52h2.79V.83h-.34a2.22,2.22,0,0,0-.88.11.59.59,0,0,0-.28.41,8.55,8.55,0,0,0-.07,1.44V7.25a11.21,11.21,0,0,0,.05,1.41.73.73,0,0,0,.27.49,1.51,1.51,0,0,0,.84.16h.4v.31H8.37V9.31h.32a1.56,1.56,0,0,0,.8-.15.68.68,0,0,0,.29-.46,9.72,9.72,0,0,0,.06-1.45V1.46L6.24,9.62H5.92L2.29,1.46V6.79a10.71,10.71,0,0,0,.07,1.49A1.16,1.16,0,0,0,2.78,9a1.63,1.63,0,0,0,1,.34v.31H.5V9.31A1.66,1.66,0,0,0,1.45,9a1.15,1.15,0,0,0,.45-.7A9.65,9.65,0,0,0,2,6.75v-4a9.27,9.27,0,0,0-.06-1.4A.62.62,0,0,0,1.64.95,2.09,2.09,0,0,0,.75.83H.5V.52H3.27Z" transform="translate(-0.5 -0.35)"/><path class="a" d="M21.9.6h.81L18.13,9.84h-.81Z" transform="translate(-0.5 -0.35)"/><path class="a" d="M34.47.52l.07,2.27h-.32a2.82,2.82,0,0,0-.42-1.23,1.44,1.44,0,0,0-.68-.61,4.16,4.16,0,0,0-1.2-.12H30.15V4.69H31a1.57,1.57,0,0,0,1.1-.28,1.65,1.65,0,0,0,.27-1.12h.34V6.5h-.34a2.91,2.91,0,0,0-.12-.92.78.78,0,0,0-.35-.46A2.18,2.18,0,0,0,31,5h-.85V7.25a11.21,11.21,0,0,0,.05,1.41.73.73,0,0,0,.27.49,1.53,1.53,0,0,0,.84.16h.31v.31H27.4V9.31h.28a1.57,1.57,0,0,0,.81-.15.68.68,0,0,0,.29-.46,9.71,9.71,0,0,0,.06-1.45V2.79a9.23,9.23,0,0,0-.06-1.4.61.61,0,0,0-.27-.44,2.09,2.09,0,0,0-.9-.12h-.16V.52Z" transform="translate(-0.5 -0.35)"/><path class="a" d="M53.6,6.2h.29V9.39H53.6a2.45,2.45,0,0,0-.44-1A3.92,3.92,0,0,1,50.1,9.79a4.37,4.37,0,0,1-3.23-1.25,4.46,4.46,0,0,1-1.25-3.3A5.75,5.75,0,0,1,46.2,2.7,3.9,3.9,0,0,1,47.81.93,4.58,4.58,0,0,1,50.08.35a4,4,0,0,1,1.85.42,3.71,3.71,0,0,1,1.24.93A3.33,3.33,0,0,0,53.52.52h.3L53.89,4H53.6a3.9,3.9,0,0,0-1.23-2.56,3.35,3.35,0,0,0-2.1-.72A2.67,2.67,0,0,0,48,1.85a5.6,5.6,0,0,0-.84,3.32,4.74,4.74,0,0,0,.92,3.14A2.87,2.87,0,0,0,50.37,9.4,3.53,3.53,0,0,0,51.87,9a2.61,2.61,0,0,0,1.21-1.2A4.52,4.52,0,0,0,53.6,6.2Z" transform="translate(-0.5 -0.35)"/><path class="a" d="M66.12,5.05H61.37v2.2a11.21,11.21,0,0,0,.05,1.41.73.73,0,0,0,.27.49,1.5,1.5,0,0,0,.83.16h.23v.31H58.67V9.31h.24a1.57,1.57,0,0,0,.81-.15A.68.68,0,0,0,60,8.7a9.71,9.71,0,0,0,.06-1.45V2.79A9.23,9.23,0,0,0,60,1.38a.61.61,0,0,0-.27-.44,2.09,2.09,0,0,0-.9-.12h-.17V.52h4.09V.83h-.17a2.2,2.2,0,0,0-.87.11.59.59,0,0,0-.28.41,8.55,8.55,0,0,0-.07,1.44V4.59h4.75V2.79a9.75,9.75,0,0,0-.06-1.4A.6.6,0,0,0,65.8.95a2.09,2.09,0,0,0-.9-.12h-.24V.52H68.8V.83h-.13a2.22,2.22,0,0,0-.88.11.59.59,0,0,0-.28.41,8.56,8.56,0,0,0-.07,1.44V7.25a12,12,0,0,0,.05,1.41.71.71,0,0,0,.27.49,1.51,1.51,0,0,0,.83.16h.21v.31H64.66V9.31H65a1.56,1.56,0,0,0,.8-.15.67.67,0,0,0,.29-.46,10.26,10.26,0,0,0,.06-1.45Z" transform="translate(-0.5 -0.35)"/><path class="a" d="M82.7,9.62H80.25a11,11,0,0,1-2-2.39q-.43-.62-.89-1.18a4.63,4.63,0,0,0-.64-.69,1,1,0,0,0-.54-.12h-.36v2a12,12,0,0,0,.05,1.41.72.72,0,0,0,.27.49,1.51,1.51,0,0,0,.84.16h.44v.31H73.05V9.31h.3a1.58,1.58,0,0,0,.81-.15.67.67,0,0,0,.29-.46,10.29,10.29,0,0,0,.06-1.45V2.79a9.78,9.78,0,0,0-.06-1.4.6.6,0,0,0-.27-.44,2.11,2.11,0,0,0-.9-.12h-.15V.52l1.3-.07q1.3-.06,2.07-.06a7.67,7.67,0,0,1,2.12.24,2.84,2.84,0,0,1,1.32.79,1.88,1.88,0,0,1,.5,1.32,2,2,0,0,1-.66,1.52A3.29,3.29,0,0,1,77.84,5a7.34,7.34,0,0,1,1.84,2A9.26,9.26,0,0,0,81.3,8.85a2.45,2.45,0,0,0,1.4.46Zm-6.88-4.7,1,0a3.87,3.87,0,0,0,.93-.15,1.6,1.6,0,0,0,.64-.35,1.59,1.59,0,0,0,.39-.61A2.65,2.65,0,0,0,79,2.85a2.33,2.33,0,0,0-.48-1.54A2.73,2.73,0,0,0,76.39.73l-.57,0Z" transform="translate(-0.5 -0.35)"/><path class="a" d="M86.52.83V.52h4.16V.83h-.19a2.22,2.22,0,0,0-.88.11.59.59,0,0,0-.28.41,8.56,8.56,0,0,0-.07,1.44V7.25a12,12,0,0,0,.05,1.41.71.71,0,0,0,.27.49,1.51,1.51,0,0,0,.84.16h.27v.31H86.52V9.31h.27a1.58,1.58,0,0,0,.81-.15.67.67,0,0,0,.29-.46,10.3,10.3,0,0,0,.06-1.45V2.79a9.79,9.79,0,0,0-.06-1.4.6.6,0,0,0-.27-.44,2.12,2.12,0,0,0-.9-.12Z" transform="translate(-0.5 -0.35)"/><path class="a" d="M95.26,9.53V6.6h.34q.57,2.86,2.71,2.86a2,2,0,0,0,1.49-.55,1.73,1.73,0,0,0,.53-1.23,1.56,1.56,0,0,0-.46-1.15,5.74,5.74,0,0,0-1.69-1,12.34,12.34,0,0,1-1.65-.82,2.5,2.5,0,0,1-.87-.92,2.44,2.44,0,0,1-.31-1.2A2.16,2.16,0,0,1,96,1,2.37,2.37,0,0,1,97.71.35a3.12,3.12,0,0,1,1.09.19,2.78,2.78,0,0,1,1,.78,1.44,1.44,0,0,0,.35-.8h.3V2.9h-.3a3.2,3.2,0,0,0-.9-1.64,2.14,2.14,0,0,0-1.5-.6,1.49,1.49,0,0,0-1.19.44,1.44,1.44,0,0,0-.38,1,1.39,1.39,0,0,0,.48,1.07,6.49,6.49,0,0,0,1.7,1A17.64,17.64,0,0,1,100.1,5a2.38,2.38,0,0,1,.86.88,2.58,2.58,0,0,1,.32,1.3,2.49,2.49,0,0,1-.78,1.9,2.91,2.91,0,0,1-2.08.73,3.18,3.18,0,0,1-2.5-1.15,2.29,2.29,0,0,0-.33.89Z" transform="translate(-0.5 -0.35)"/><path class="a" d="M106,2.71h-.31l0-2.19h8.83l0,2.19h-.29a3.49,3.49,0,0,0-.42-1.3,1.12,1.12,0,0,0-.58-.49,4.22,4.22,0,0,0-1.05-.09h-1.46V7.25a12,12,0,0,0,.05,1.4.71.71,0,0,0,.27.5,1.52,1.52,0,0,0,.83.16h.44v.31h-4.54V9.31h.47a1.58,1.58,0,0,0,.81-.15.68.68,0,0,0,.29-.46,9.71,9.71,0,0,0,.06-1.45V.83h-1.35A5.32,5.32,0,0,0,107,.91a1.06,1.06,0,0,0-.57.51A3.59,3.59,0,0,0,106,2.71Z" transform="translate(-0.5 -0.35)"/><path class="a" d="M118.73.83V.52h4.16V.83h-.19a2.22,2.22,0,0,0-.88.11.59.59,0,0,0-.28.41,8.54,8.54,0,0,0-.07,1.44V7.25a12,12,0,0,0,.05,1.41.71.71,0,0,0,.27.49,1.51,1.51,0,0,0,.84.16h.27v.31h-4.16V9.31H119a1.58,1.58,0,0,0,.81-.15.67.67,0,0,0,.29-.46,10.3,10.3,0,0,0,.06-1.45V2.79a9.79,9.79,0,0,0-.06-1.4.6.6,0,0,0-.27-.44,2.12,2.12,0,0,0-.9-.12Z" transform="translate(-0.5 -0.35)"/><path class="a" d="M132.61,6.26h-3.46l-.23.58a5.84,5.84,0,0,0-.52,1.64.73.73,0,0,0,.28.62,1.15,1.15,0,0,0,.71.21v.31h-2.71V9.31a1.46,1.46,0,0,0,.9-.43,5.21,5.21,0,0,0,.71-1.4q0-.1.32-.78L131.26.39h.26l3,7.23.42,1a1.27,1.27,0,0,0,.38.51,1.38,1.38,0,0,0,.71.23v.31H132.5V9.31a2.68,2.68,0,0,0,.89-.1.38.38,0,0,0,.23-.39,3.9,3.9,0,0,0-.31-.88ZM132.5,6l-1.61-3.88L129.28,6Z" transform="translate(-0.5 -0.35)"/><path class="a" d="M147.89,9.83,141.45,1.3V7.61a4.29,4.29,0,0,0,.08,1,.87.87,0,0,0,.44.46,2.24,2.24,0,0,0,1.09.21v.31h-3.4V9.31a2.43,2.43,0,0,0,1-.24.78.78,0,0,0,.41-.41,5.08,5.08,0,0,0,.06-1V2.79a6.42,6.42,0,0,0-.1-1.4.66.66,0,0,0-.31-.46,2.71,2.71,0,0,0-.94-.1V.52h2.69l5.39,7.12V2.2a2,2,0,0,0-.12-.85.87.87,0,0,0-.51-.38,2.66,2.66,0,0,0-.92-.14V.52h3.3V.83a2.42,2.42,0,0,0-.91.22.83.83,0,0,0-.42.42,2.65,2.65,0,0,0-.09.83V9.83Z" transform="translate(-0.5 -0.35)"/><path class="a" d="M154,9.53V6.6h.34q.57,2.86,2.7,2.86a2,2,0,0,0,1.49-.55A1.73,1.73,0,0,0,159,7.69a1.56,1.56,0,0,0-.46-1.15,5.73,5.73,0,0,0-1.69-1,12.34,12.34,0,0,1-1.65-.82,2.5,2.5,0,0,1-.87-.92,2.45,2.45,0,0,1-.31-1.2A2.15,2.15,0,0,1,154.71,1a2.37,2.37,0,0,1,1.71-.65,3.12,3.12,0,0,1,1.09.19,2.78,2.78,0,0,1,1,.78,1.44,1.44,0,0,0,.35-.8h.3V2.9h-.3a3.2,3.2,0,0,0-.9-1.64,2.15,2.15,0,0,0-1.5-.6,1.49,1.49,0,0,0-1.19.44,1.44,1.44,0,0,0-.38,1,1.39,1.39,0,0,0,.48,1.07,6.49,6.49,0,0,0,1.7,1,17.6,17.6,0,0,1,1.71.84,2.39,2.39,0,0,1,.86.88,2.58,2.58,0,0,1,.32,1.3,2.49,2.49,0,0,1-.78,1.9,2.91,2.91,0,0,1-2.08.73,3.18,3.18,0,0,1-2.5-1.15,2.28,2.28,0,0,0-.33.89Z" transform="translate(-0.5 -0.35)"/><path class="a" d="M171.94,5.05h-4.75v2.2a11.33,11.33,0,0,0,.05,1.41.73.73,0,0,0,.27.49,1.5,1.5,0,0,0,.83.16h.24v.31h-4.09V9.31h.24a1.57,1.57,0,0,0,.81-.15.69.69,0,0,0,.29-.46,9.78,9.78,0,0,0,.06-1.45V2.79a9.3,9.3,0,0,0-.06-1.4.61.61,0,0,0-.27-.44,2.09,2.09,0,0,0-.9-.12h-.17V.52h4.09V.83h-.17a2.2,2.2,0,0,0-.87.11.59.59,0,0,0-.28.41,8.54,8.54,0,0,0-.07,1.44V4.59h4.75V2.79a9.72,9.72,0,0,0-.06-1.4.61.61,0,0,0-.26-.44,2.09,2.09,0,0,0-.9-.12h-.24V.52h4.14V.83h-.13a2.22,2.22,0,0,0-.88.11.58.58,0,0,0-.28.41,8.52,8.52,0,0,0-.07,1.44V7.25a12,12,0,0,0,.05,1.41.71.71,0,0,0,.27.49,1.52,1.52,0,0,0,.83.16h.21v.31h-4.14V9.31h.32a1.56,1.56,0,0,0,.8-.15.67.67,0,0,0,.29-.46,10.23,10.23,0,0,0,.06-1.45Z" transform="translate(-0.5 -0.35)"/><path class="a" d="M184.46,6.26H181l-.24.58a5.86,5.86,0,0,0-.52,1.64.73.73,0,0,0,.28.62,1.15,1.15,0,0,0,.72.21v.31h-2.71V9.31a1.46,1.46,0,0,0,.9-.43,5.24,5.24,0,0,0,.71-1.4q0-.1.32-.78L183.11.39h.26l3,7.23.42,1a1.27,1.27,0,0,0,.38.51,1.39,1.39,0,0,0,.72.23v.31h-3.58V9.31a2.68,2.68,0,0,0,.89-.1.38.38,0,0,0,.23-.39,3.93,3.93,0,0,0-.31-.88Zm-.11-.3-1.61-3.88L181.13,6Z" transform="translate(-0.5 -0.35)"/><path class="a" d="M196.63,9.83h-.42L193.07,2.6q-.09-.19-.28-.67a2.08,2.08,0,0,0-.55-.87,1.61,1.61,0,0,0-.93-.24V.52h3.92V.83a3,3,0,0,0-1,.11.41.41,0,0,0-.25.41,3.33,3.33,0,0,0,.32.91l2.62,6,2.1-5a5.86,5.86,0,0,0,.53-1.64q0-.77-1.09-.8V.52h2.78V.83a1.14,1.14,0,0,0-.75.3,2.34,2.34,0,0,0-.56.85l-.61,1.43Z" transform="translate(-0.5 -0.35)"/><path class="a" d="M213.19,9.83,206.75,1.3V7.61a4.29,4.29,0,0,0,.08,1,.87.87,0,0,0,.44.46,2.24,2.24,0,0,0,1.09.21v.31H205V9.31a2.43,2.43,0,0,0,1-.24.78.78,0,0,0,.41-.41,5.08,5.08,0,0,0,.06-1V2.79a6.42,6.42,0,0,0-.1-1.4A.66.66,0,0,0,206,.93a2.71,2.71,0,0,0-.94-.1V.52h2.69l5.39,7.12V2.2a2,2,0,0,0-.12-.85.87.87,0,0,0-.51-.38,2.66,2.66,0,0,0-.92-.14V.52h3.3V.83A2.42,2.42,0,0,0,214,1a.83.83,0,0,0-.42.42,2.65,2.65,0,0,0-.09.83V9.83Z" transform="translate(-0.5 -0.35)"/><path class="a" d="M226.32,6.79h.32l-.19,2.83h-7.54V9.31h.19a1.41,1.41,0,0,0,.88-.18.81.81,0,0,0,.25-.46,10.59,10.59,0,0,0,.05-1.42V2.79a10.13,10.13,0,0,0-.06-1.37A.64.64,0,0,0,220,1a1.83,1.83,0,0,0-.86-.13V.52h6.5l.21,2.27h-.32A3.55,3.55,0,0,0,225,1.43a1.34,1.34,0,0,0-.74-.5,6.53,6.53,0,0,0-1.38-.1h-1.26V4.65h1a2.62,2.62,0,0,0,.93-.11.6.6,0,0,0,.35-.35,3.12,3.12,0,0,0,.08-.9h.32V6.4h-.32a2.66,2.66,0,0,0-.13-1,.62.62,0,0,0-.37-.34,3.1,3.1,0,0,0-.83-.08h-1V7.12A4.66,4.66,0,0,0,221.8,9q.21.29,1.12.29h.68a3.23,3.23,0,0,0,1.18-.18,2.12,2.12,0,0,0,.88-.76A4.43,4.43,0,0,0,226.32,6.79Z" transform="translate(-0.5 -0.35)"/><path class="a" d="M240.5,9.62H238a11,11,0,0,1-2-2.39q-.43-.62-.89-1.18a4.65,4.65,0,0,0-.64-.69,1,1,0,0,0-.54-.12h-.36v2a12,12,0,0,0,.05,1.41.72.72,0,0,0,.27.49,1.51,1.51,0,0,0,.84.16h.44v.31h-4.36V9.31h.3a1.58,1.58,0,0,0,.81-.15.67.67,0,0,0,.29-.46,10.29,10.29,0,0,0,.06-1.45V2.79a9.78,9.78,0,0,0-.06-1.4A.6.6,0,0,0,232,.95a2.11,2.11,0,0,0-.9-.12h-.15V.52l1.3-.07q1.3-.06,2.07-.06a7.66,7.66,0,0,1,2.12.24,2.84,2.84,0,0,1,1.32.79,1.88,1.88,0,0,1,.5,1.32,2,2,0,0,1-.66,1.52,3.29,3.29,0,0,1-1.93.79,7.34,7.34,0,0,1,1.84,2,9.25,9.25,0,0,0,1.62,1.82,2.45,2.45,0,0,0,1.4.46Zm-6.88-4.7,1,0a3.88,3.88,0,0,0,.93-.15,1.6,1.6,0,0,0,.64-.35,1.59,1.59,0,0,0,.39-.61,2.66,2.66,0,0,0,.14-.93,2.33,2.33,0,0,0-.48-1.54,2.73,2.73,0,0,0-2.09-.58l-.57,0Z" transform="translate(-0.5 -0.35)"/></svg>